<?xml version="1.0" encoding="utf-8"?>
<!-- Generator: Adobe Illustrator 20.0.0, SVG Export Plug-In . SVG Version: 6.00 Build 0)  -->
<svg version="1.1" id="Layer_1" xmlns="http://www.w3.org/2000/svg" xmlns:xlink="http://www.w3.org/1999/xlink" x="0px" y="0px"
	 viewBox="0 0 408.5 51.4" style="enable-background:new 0 0 408.5 51.4;" xml:space="preserve">
<style type="text/css">
	.st0{fill:#45BBE1;}
	.st1{fill:#666666;}
</style>
<g>
	<g>
		<g>
			<g>
				<path class="st0" d="M44.5,2.5h-4.7h-4.7h-4.7h-4.7h-4.7h-4.7h-4.7H6.8H2v4.7v4.7v4.7v4.7v4.7v4.7v4.7v4.7V45v4.7h4.7h4.7h4.7
					h4.7h4.7h4.7h4.7h4.7h4.7h4.7V45v-4.7v-4.7v-4.7v-4.7v-4.7v-4.7v-4.7V7.2V2.5H44.5z M39.8,26.1v4.7h-4.7v4.7h-4.7v4.7h-4.7h-4.7
					v-4.7h-4.7v-4.7h-4.7v-4.7v-4.7h4.7v-4.7h4.7v-4.7h4.7h4.7v4.7h4.7v4.7h4.7V26.1z"/>
			</g>
		</g>
		<g>
			<path class="st1" d="M95.6,46.3c-2.8,2.5-6.5,3.8-11.3,3.8c-4.8,0-8.7-1.8-11.7-5.3c-3-3.5-4.5-8.1-4.5-13.8v-7.2
				c0-5.7,1.5-10.3,4.5-13.8c3-3.5,6.9-5.3,11.7-5.3c4.8,0,8.6,1.2,11.3,3.7c2.7,2.5,4.3,6,4.7,10.5l0,0.2h-3.4
				c-1-7.5-5.1-11.3-12.3-11.3c-3.8,0-6.9,1.5-9.3,4.4c-2.3,2.9-3.5,6.8-3.5,11.5V31c0,4.8,1.2,8.6,3.5,11.6
				c2.3,2.9,5.4,4.4,9.2,4.4c3.8,0,6.7-0.9,8.7-2.8c2-1.9,3.3-4.7,3.8-8.5h3.4l0,0.2C99.9,40.3,98.3,43.8,95.6,46.3z"/>
			<path class="st1" d="M106.6,33.6v-1c0-4.9,1.3-8.9,4-11.9c2.6-3.1,6.1-4.6,10.5-4.6c4.4,0,7.9,1.5,10.5,4.6c2.7,3.1,4,7,4,11.9v1
				c0,4.9-1.3,8.9-4,11.9c-2.6,3.1-6.1,4.6-10.5,4.6s-7.9-1.5-10.5-4.6C108,42.5,106.6,38.5,106.6,33.6z M110.3,32.6v1
				c0,3.9,1,7.2,2.9,9.7c2,2.5,4.6,3.8,7.9,3.8c3.3,0,6-1.3,7.9-3.8c2-2.5,2.9-5.7,2.9-9.7v-1c0-3.9-1-7.1-3-9.6
				c-2-2.5-4.6-3.8-7.9-3.8c-3.3,0-6,1.3-7.9,3.8C111.2,25.5,110.3,28.7,110.3,32.6z"/>
			<path class="st1" d="M146.8,49.4h-3.6V16.6h3.2l0.4,5.4v0.4c2.1-4.3,5.2-6.4,9.5-6.4c0.8,0,1.6,0.1,2.4,0.3l-0.5,3.4l-2.7-0.2
				c-2.2,0-4.1,0.6-5.6,1.9c-1.5,1.3-2.5,3-3.2,5.3V49.4z"/>
			<path class="st1" d="M165.3,5.4h12.8c4.7,0,8.3,1,10.8,2.9c2.5,1.9,3.8,4.8,3.8,8.7c0,2.3-0.6,4.2-1.9,5.9
				c-1.3,1.7-3,2.8-5.2,3.5c2.7,0.5,4.9,1.7,6.5,3.8c1.7,2,2.5,4.4,2.5,7c0,3.9-1.3,7-3.8,9.1c-2.5,2.1-5.9,3.2-10.3,3.2l-15.2,0
				V5.4z M168.9,8.4v16.7H179c3.2,0,5.7-0.7,7.4-2.1c1.7-1.4,2.6-3.5,2.6-6.2c0-5.6-3.6-8.4-10.9-8.4H168.9z M181.1,28.2h-12.2v18.2
				h11.6c3.3,0,5.8-0.8,7.7-2.4c1.8-1.6,2.8-3.8,2.8-6.6c0-2.8-0.9-5-2.6-6.7C186.6,29,184.2,28.2,181.1,28.2z"/>
			<path class="st1" d="M206.7,2.2v5.1h-3.6V2.2H206.7z M206.7,16.6v32.8h-3.6V16.6H206.7z"/>
			<path class="st1" d="M218.8,8.3h3.6v8.4h7.2v3h-7.2V41c0,3.9,1.4,5.9,4.3,5.9c1.2,0,2.4-0.1,3.6-0.3l0.6,2.7
				c-1.3,0.5-2.9,0.8-4.8,0.8c-4.8,0-7.3-3-7.3-9.1V19.7h-5.7v-3h5.7V8.3z"/>
			<path class="st0" d="M270.9,26.8v16.6c-1.7,2-4,3.6-6.9,4.8c-2.9,1.3-6.3,1.9-10.4,1.9c-5.5,0-9.9-1.7-13.3-5
				c-3.4-3.3-5.1-7.7-5.1-13.1v-9.2c0-5.3,1.7-9.7,5-13c3.3-3.4,7.7-5,13.1-5c5.4,0,9.5,1.3,12.4,3.8c2.9,2.5,4.5,6.2,4.9,10.9
				l0,0.2h-9.6c-0.3-2.4-1.1-4.2-2.3-5.3c-1.2-1.1-2.9-1.7-5.3-1.7c-2.4,0-4.3,0.9-5.7,2.8c-1.4,1.9-2.2,4.3-2.2,7.3V32
				c0,3.1,0.7,5.6,2.2,7.4c1.4,1.8,3.4,2.8,6,2.8c3.3,0,5.6-0.6,7-1.7v-7h-7v-6.8H270.9z"/>
			<path class="st0" d="M287.2,2.2v47.2H277V2.2H287.2z"/>
			<path class="st0" d="M292.2,33.4v-0.6c0-5,1.4-9.1,4.2-12.1c2.8-3,6.7-4.6,11.6-4.6c5,0,8.8,1.5,11.6,4.6
				c2.8,3.1,4.2,7.1,4.2,12.1v0.6c0,5-1.4,9.1-4.2,12.1c-2.8,3-6.7,4.6-11.6,4.6c-5,0-8.8-1.5-11.6-4.5
				C293.6,42.5,292.2,38.5,292.2,33.4z M302.4,32.8v0.6c0,5.9,1.9,8.8,5.6,8.8c3.8,0,5.6-2.9,5.6-8.8v-0.6c0-5.9-1.9-8.8-5.6-8.8
				C304.3,24,302.4,26.9,302.4,32.8z"/>
			<path class="st0" d="M345.9,50.1c-3.5,0-6.2-1.5-8.1-4.5l-0.7,3.9h-8.9V2.2h10.3v17.7c1.9-2.5,4.4-3.8,7.3-3.8
				c4.2,0,7.3,1.5,9.5,4.5c2.2,3,3.3,7.2,3.3,12.5l0,0.6c0,5.1-1.1,9.1-3.2,12C353.2,48.7,350.1,50.1,345.9,50.1z M348.5,33.8v-0.6
				c0-3.1-0.4-5.4-1.1-6.9c-0.8-1.5-2.1-2.3-4-2.3c-2.2,0-3.8,0.8-4.7,2.4v13.8c0.9,1.4,2.4,2.1,4.6,2.1s3.5-0.7,4.3-2
				C348.1,38.9,348.5,36.8,348.5,33.8z"/>
			<path class="st0" d="M372.2,50.1c-3.1,0-5.7-0.9-7.6-2.7c-1.9-1.8-2.9-4.2-2.9-7.2c0-3.3,1.2-5.8,3.7-7.6
				c2.4-1.7,6.1-2.6,11.1-2.6h3.7v-2.3c0-2.9-1.3-4.3-4-4.3c-2.3,0-3.5,1.1-3.5,3.4l-9.9,0l-0.1-0.2c-0.1-3,1.1-5.6,3.7-7.6
				s6-3,10.3-3c4.2,0,7.6,1,10,3.1c2.5,2,3.7,4.9,3.7,8.6v12.3c0,3.3,0.6,6.4,1.7,9.3l-10.1,0c-0.6-1.2-1.1-2.4-1.3-3.7
				C378.6,48.6,375.7,50.1,372.2,50.1z M373,36.6c-0.8,0.8-1.2,1.7-1.2,2.8s0.3,2,1,2.5c0.6,0.6,1.5,0.9,2.5,0.9
				c2,0,3.7-0.7,4.8-2.2v-5.1h-3.6C375,35.5,373.8,35.9,373,36.6z"/>
			<path class="st0" d="M406.8,2.2v47.2h-10.3V2.2H406.8z"/>
		</g>
	</g>
</g>
</svg>
