<?xml version="1.0" encoding="utf-8"?>
<!-- Generator: Adobe Illustrator 20.0.0, SVG Export Plug-In . SVG Version: 6.00 Build 0)  -->
<svg version="1.1" id="Layer_1" xmlns="http://www.w3.org/2000/svg" xmlns:xlink="http://www.w3.org/1999/xlink" x="0px" y="0px"
	 viewBox="0 0 370 100" style="enable-background:new 0 0 370 100;" xml:space="preserve">
<style type="text/css">
	.st0{fill:#45BFE5;}
	.st1{fill:#999999;}
</style>
<g>
	<path class="st0" d="M89.9,5h-9h-9h-9h-9h-9h-9h-9h-9h-9v9v9v9v9v9v9v9v9v9v9h9h9h9h9h9h9h9h9h9h9v-9v-9v-9v-9v-9v-9v-9v-9v-9V5
		H89.9z M80.9,50v9h-9v9h-9v9h-9h-9v-9h-9v-9h-9v-9v-9h9v-9h9v-9h9h9v9h9v9h9V50z"/>
	<g>
		<g>
			<path class="st0" d="M129.5,58.6v-6.7h-6.7V11.7h6.7V5h26.8v6.7h6.7v13.4h-13.4v-6.7h-13.4v26.9h13.4v-6.7h13.4v13.4h-6.7v6.7
				H129.5z"/>
			<path class="st0" d="M176.5,58.6v-6.7h-6.7V25.1h6.7v-6.7h26.8v6.7h6.7v26.8h-6.7v6.7H176.5z M196.6,45.2V31.8h-13.4v13.4H196.6z
				"/>
			<path class="st0" d="M216.7,58.6V25.1h6.7v-6.7h20.1v13.4h-13.4v26.8H216.7z"/>
			<path class="st1" d="M250.3,58.6V5h33.5v6.7h6.7v13.4h-6.7v13.4h6.7v13.4h-6.7v6.7H250.3z M277.1,25.1v-6.7h-13.4v6.7H277.1z
				 M277.1,45.2v-6.7h-13.4v6.7H277.1z"/>
			<path class="st1" d="M297.2,11.7V5h13.4v6.7H297.2z M297.2,58.6V18.4h13.4v40.3H297.2z"/>
			<path class="st1" d="M330.8,58.6v-6.7h-6.7V31.8h-6.7V18.4h6.7V5h13.4v13.4h20.1v13.4h-20.1v13.4h20.1v13.4H330.8z"/>
		</g>
		<g>
			<path d="M291.2,83.5v8.4c-0.6,0.9-1.6,1.6-3,2.2c-1.4,0.6-3.2,0.9-5.1,0.9c-2.8,0-5-0.9-6.8-2.8c-1.7-1.9-2.6-4.3-2.6-7.3v-4.3
				c0-2.9,0.8-5.3,2.5-7.1c1.7-1.8,3.8-2.7,6.4-2.7s4.6,0.6,6.1,1.9c1.5,1.2,2.3,2.9,2.5,5l0,0.1h-1.8c-0.3-1.7-1-3-2.1-3.9
				c-1.1-0.9-2.6-1.4-4.7-1.4c-2,0-3.7,0.8-5,2.3s-1.9,3.5-1.9,5.9V85c0,2.5,0.7,4.5,2.1,6.1c1.4,1.6,3.2,2.4,5.4,2.4
				c1.5,0,2.8-0.2,3.9-0.6c1.1-0.4,1.9-0.9,2.3-1.5v-6.2H283v-1.7H291.2z"/>
			<path d="M298.7,69.3v25.3h-1.9V69.3H298.7z"/>
			<path d="M303,86.2v-0.5c0-2.6,0.7-4.7,2.1-6.4s3.3-2.5,5.6-2.5s4.2,0.8,5.6,2.5c1.4,1.6,2.1,3.8,2.1,6.4v0.5
				c0,2.6-0.7,4.7-2.1,6.4c-1.4,1.6-3.3,2.5-5.6,2.5s-4.2-0.8-5.6-2.5S303,88.8,303,86.2z M304.9,85.7v0.5c0,2.1,0.5,3.8,1.6,5.2
				c1,1.3,2.5,2,4.3,2c1.8,0,3.2-0.7,4.3-2c1-1.4,1.6-3.1,1.6-5.2v-0.5c0-2.1-0.5-3.8-1.6-5.1c-1.1-1.4-2.5-2-4.3-2s-3.2,0.7-4.2,2
				C305.4,81.9,304.9,83.6,304.9,85.7z"/>
			<path d="M330,95c-2.5,0-4.4-1-5.6-3l-0.2,2.6h-1.7V69.4h1.9v10.5c1.2-2.1,3.1-3.1,5.5-3.1c2.1,0,3.8,0.8,4.9,2.5
				c1.2,1.7,1.8,3.9,1.8,6.7l0,0.3c0,2.7-0.6,4.8-1.8,6.3C333.7,94.3,332,95,330,95z M329.6,78.5c-2.5,0-4.2,1.2-5.1,3.6V90
				c0.9,2.2,2.6,3.3,5.1,3.3c1.7,0,2.9-0.6,3.8-1.8c0.9-1.2,1.3-2.9,1.3-5.1l0-0.3c0-2.3-0.4-4.1-1.3-5.5
				C332.5,79.2,331.2,78.5,329.6,78.5z"/>
			<path d="M345.5,95c-1.7,0-3-0.4-4-1.3c-0.9-0.9-1.4-2.1-1.4-3.7s0.7-2.9,2.1-3.8s3.3-1.5,5.7-1.5h3.9v-2.2c0-1.3-0.4-2.2-1.2-3
				s-1.9-1.1-3.3-1.1s-2.5,0.3-3.4,1c-0.9,0.7-1.3,1.5-1.3,2.5l-1.8,0l0-0.1c-0.1-1.3,0.5-2.5,1.8-3.5c1.3-1,2.9-1.5,4.8-1.5
				s3.5,0.5,4.6,1.5c1.2,1,1.7,2.4,1.7,4.2v8.6c0,1.2,0.2,2.4,0.5,3.5l-2,0c-0.2-1.1-0.4-2-0.4-2.9c-0.7,1-1.6,1.7-2.6,2.3
				C348.1,94.8,346.9,95,345.5,95z M342.1,90.1c0,1,0.3,1.8,1,2.4s1.6,0.9,2.9,0.9s2.4-0.3,3.5-1c1.1-0.6,1.9-1.5,2.4-2.5v-3.7h-3.9
				c-1.7,0-3.1,0.4-4.2,1.1C342.6,88,342.1,88.9,342.1,90.1z"/>
			<path d="M361.1,69.3v25.3h-1.9V69.3H361.1z"/>
		</g>
	</g>
</g>
</svg>
